KRSPY-parametric-NarrowBlackMinGrade.ufo
<glyph name="comma" format="2">
  <advance width="326"/>
  <unicode hex="002C"/>
  <outline>
    <contour>
      <point x="171" y="-197" type="line"/>
      <point x="287" y="0" type="line"/>
      <point x="287" y="265" type="line"/>
      <point x="-69" y="265" type="line"/>
      <point x="-117" y="203" type="line"/>
      <point x="-117" y="0" type="line"/>
      <point x="111" y="0" type="line"/>
      <point x="111" y="-197" type="line"/>
    </contour>
  </outline>
</glyph>
<glyph name="period" format="2">
  <advance width="409.19401383365346"/>
  <unicode hex="002E"/>
  <outline>
    <contour>
      <point x="323.10772033294563" y="0.0" type="line" identifier="1m237t4hyw"/>
      <point x="370.7371876380886" y="71.49501754006258" type="line" identifier="v7N4yg5XNk"/>
      <point x="370.7371876380886" y="244.1408796183571" type="line"/>
      <point x="127.6723029335642" y="244.1408796183571" type="line" identifier="zfocDyDTCM"/>
      <point x="80.04283562842122" y="172.6458620782945" type="line"/>
      <point x="80.04283562842122" y="0.0" type="line" identifier="S4rO5KuHiL"/>
    </contour>
  </outline>
</glyph>
<glyph name="zero" format="2">
  <advance width="1154.8179981783585"/>
  <unicode hex="0030"/>
  <outline>
    <contour>
      <point x="64.79608437266096" y="0.0" type="line" identifier="4KX3b3mGg4"/>
      <point x="1090.0219138056975" y="0.0" type="line" identifier="V2j8wYP0nr"/>
      <point x="1090.0219138056975" y="1600.0" type="line" identifier="NaxGoenf3y"/>
      <point x="64.79608437266096" y="1600.0" type="line" identifier="rx6fJSLiri"/>
    </contour>
    <contour>
      <point x="468.6203140077014" y="277.57153549946344" type="line"/>
      <point x="468.6203140077014" y="1322.4284645005366" type="line"/>
      <point x="686.1976841706571" y="1322.4284645005366" type="line"/>
      <point x="686.1976841706571" y="277.57153549946344" type="line"/>
    </contour>
  </outline>
</glyph>
<glyph name="one" format="2">
  <advance width="757.6109803497192"/>
  <unicode hex="0031"/>
  <outline>
    <contour>
      <point x="40.27415703992281" y="0.0" type="line"/>
      <point x="718.326966606246" y="0.0" type="line" identifier="CURJAw79Zl"/>
      <point x="718.326966606246" y="277.57153549946344" type="line" identifier="0DUCJo8xIi"/>
      <point x="581.222447672898" y="277.57153549946344" type="line" identifier="5nmxQXofSG"/>
      <point x="581.222447672898" y="1600.0" type="line" identifier="4rjIeWbSbx"/>
      <point x="36.82697111525941" y="1600.0" type="line"/>
      <point x="36.82697111525941" y="1322.4284645005366" type="line"/>
      <point x="177.37867597327056" y="1322.4284645005366" type="line"/>
      <point x="177.37867597327056" y="277.57153549946344" type="line"/>
      <point x="40.27415703992281" y="277.57153549946344" type="line"/>
    </contour>
  </outline>
</glyph>
<glyph name="two" format="2">
  <advance width="1061"/>
  <unicode hex="0032"/>
  <outline>
    <contour>
      <point x="27" y="0" type="line"/>
      <point x="1033" y="0" type="line" identifier="pzdvPTirLJ"/>
      <point x="1033" y="275" type="line"/>
      <point x="437" y="275" type="line"/>
      <point x="437" y="407" type="line"/>
      <point x="1028" y="985" type="line" identifier="yyb1NCCI5w"/>
      <point x="1028" y="1600" type="line" identifier="5FogYRSgkk"/>
      <point x="33" y="1600" type="line" identifier="svlFvrau4c"/>
      <point x="33" y="1101" type="line" identifier="LQ9fBsTy9K"/>
      <point x="414" y="1101" type="line"/>
      <point x="414" y="1325" type="line"/>
      <point x="617" y="1325" type="line"/>
      <point x="617" y="1083" type="line"/>
      <point x="27" y="515" type="line" identifier="teVKnpBcVb"/>
    </contour>
  </outline>
</glyph>
<glyph name="three" format="2">
  <advance width="1146.1218245272298"/>
  <unicode hex="0033"/>
  <outline>
    <contour>
      <point x="62.41496451406361" y="0.0" type="line" identifier="O9abUc1nmN"/>
      <point x="1084.6738269801333" y="0.0" type="line" identifier="kMJYMTfXCq"/>
      <point x="1084.6738269801333" y="869.9668767866966" type="line" identifier="su2XmdS8e8"/>
      <point x="968.0618907195484" y="869.9668767866966" type="line" identifier="JQaOzDQqlF"/>
      <point x="968.0618907195484" y="870.0052935818702" type="line"/>
      <point x="1053.4201588976364" y="950.3306279252224" type="line" identifier="S91TzLL02W"/>
      <point x="1053.4201588976364" y="1600.0" type="line" identifier="xg8x2Ki40p"/>
      <point x="65.24406388370353" y="1600.0" type="line" identifier="pE1XSRiy68"/>
      <point x="65.24406388370353" y="1156.0061683304928" type="line" identifier="5lNstGRcSF"/>
      <point x="466.032528023519" y="1156.0061683304928" type="line" identifier="AcE5xKDZfE"/>
      <point x="466.032528023519" y="1317.4896518139763" type="line" identifier="7ogBYufWpl"/>
      <point x="645.8947415884353" y="1317.4896518139763" type="line" identifier="RHLvSX2Jv6"/>
      <point x="645.8947415884353" y="950.3335046758469" type="line" identifier="YUjTrmoWd9"/>
      <point x="571.1209317425534" y="874.45255165075" type="line"/>
      <point x="571.1209317425534" y="871.4520736953169" type="line" identifier="iic1IBkDqp"/>
      <point x="157.72597823048275" y="871.4520736953169" type="line" identifier="lRLJEhXMlO"/>
      <point x="157.72597823048275" y="702.4580255931608" type="line" identifier="8aKgEELrVU"/>
      <point x="680.8147787427066" y="702.4580255931608" type="line" identifier="Dm8zjmbhNr"/>
      <point x="680.8147787427066" y="276.78985291597905" type="line" identifier="xv9CFHiFgB"/>
      <point x="463.18567215864516" y="276.78985291597905" type="line" identifier="YajKQV3MHP"/>
      <point x="463.18567215864516" y="390.81064848632417" type="line" identifier="36SchVkwze"/>
      <point x="62.41496451406361" y="390.81064848632417" type="line" identifier="tVui9PiOjA"/>
    </contour>
  </outline>
</glyph>
<glyph name="four" format="2">
  <advance width="1127"/>
  <unicode hex="0034"/>
  <outline>
    <contour>
      <point x="613" y="0" type="line"/>
      <point x="1017" y="0" type="line"/>
      <point x="1017" y="656" type="line"/>
      <point x="1100" y="656" type="line"/>
      <point x="1100" y="932" type="line"/>
      <point x="1017" y="932" type="line"/>
      <point x="1017" y="1600" type="line"/>
      <point x="613" y="1600" type="line"/>
      <point x="613" y="932" type="line"/>
      <point x="431" y="932" type="line"/>
      <point x="431" y="993" type="line"/>
      <point x="515" y="1678" type="line"/>
      <point x="120" y="1678" type="line"/>
      <point x="27" y="992" type="line"/>
      <point x="27" y="656" type="line"/>
      <point x="613" y="656" type="line"/>
    </contour>
  </outline>
</glyph>
<glyph name="six" format="2">
  <advance width="1190"/>
  <unicode hex="0036"/>
  <outline>
    <contour>
      <point x="88" y="0" type="line" identifier="uiw6aBUf4P"/>
      <point x="1108" y="0" type="line" identifier="jtYkxiUX6G"/>
      <point x="1108" y="880" type="line" identifier="2G5L37c87I"/>
      <point x="492" y="880" type="line"/>
      <point x="492" y="1198" type="line"/>
      <point x="525" y="1325" type="line"/>
      <point x="704" y="1325" type="line"/>
      <point x="704" y="1151" type="line"/>
      <point x="1107" y="1151" type="line" identifier="Wuidbv6mUe"/>
      <point x="1107" y="1600" type="line" identifier="oGvEEuxnYv"/>
      <point x="146" y="1600" type="line" identifier="xR3pEHbMJx"/>
      <point x="88" y="1204" type="line" identifier="KnMArb0tv8"/>
    </contour>
    <contour>
      <point x="704" y="651" type="line"/>
      <point x="704" y="275" type="line"/>
      <point x="492" y="275" type="line"/>
      <point x="492" y="651" type="line"/>
    </contour>
  </outline>
</glyph>
<glyph name="seven" format="2">
  <advance width="1140.8067707346986"/>
  <unicode hex="0037"/>
  <outline>
    <contour>
      <point x="454.89246002759523" y="0.0" type="line"/>
      <point x="864.866388911434" y="0.0" type="line" identifier="PiPrv7Kcoy"/>
      <point x="1078.9115872629386" y="1182.6969672375076" type="line" identifier="PkvwNC9Tx1"/>
      <point x="1078.9115872629386" y="1600.0" type="line" identifier="tgqM27bPOm"/>
      <point x="57.13294375456538" y="1600.0" type="line" identifier="36ml4xRICt"/>
      <point x="57.13294375456538" y="1084.864341819297" type="line" identifier="aaDZsh5Mah"/>
      <point x="457.90365139914695" y="1084.864341819297" type="line"/>
      <point x="457.90365139914695" y="1322.4284645005366" type="line"/>
      <point x="668.976742508274" y="1322.4284645005366" type="line"/>
      <point x="668.976742508274" y="1272.4060817574332" type="line"/>
    </contour>
  </outline>
</glyph>
<glyph name="eight" format="2">
  <advance width="1181.0716842969093"/>
  <unicode hex="0038"/>
  <outline>
    <contour>
      <point x="641.7849380912444" y="692.1226722217714" type="line"/>
      <point x="704.7551966380795" y="629.0401753104455" type="line"/>
      <point x="704.7551966380795" y="276.2817592367142" type="line"/>
      <point x="476.31648765883" y="276.2817592367142" type="line"/>
      <point x="476.31648765883" y="628.6884181478775" type="line"/>
      <point x="539.3393213032854" y="692.1031301571843" type="line"/>
    </contour>
    <contour>
      <point x="1001.9233016800583" y="799.0" type="line"/>
      <point x="1001.9233016800583" y="801.0" type="line"/>
      <point x="1105.1499968436904" y="938.6203140077014" type="line"/>
      <point x="1105.1499968436904" y="1600.0" type="line"/>
      <point x="75.93944394845296" y="1600.0" type="line"/>
      <point x="75.93944394845296" y="938.6203140077014" type="line"/>
      <point x="180.30775820865912" y="801.0" type="line"/>
      <point x="180.30775820865912" y="799.0" type="line"/>
      <point x="72.49225802378956" y="658.2764205647088" type="line"/>
      <point x="72.49225802378956" y="0.0" type="line"/>
      <point x="1108.597182768354" y="0.0" type="line"/>
      <point x="1108.597182768354" y="658.2764205647088" type="line"/>
    </contour>
    <contour>
      <point x="539.3393213032854" y="908.2681690699709" type="line"/>
      <point x="479.7832156480805" y="968.442821199578" type="line"/>
      <point x="479.7636735834934" y="1324.109082055028" type="line"/>
      <point x="701.3080107134161" y="1324.109082055028" type="line"/>
      <point x="701.288468648829" y="968.442821199578" type="line"/>
      <point x="641.7653960266573" y="908.287711134558" type="line"/>
    </contour>
  </outline>
</glyph>
<glyph name="nine" format="2">
  <advance width="1139.8728368007648"/>
  <unicode hex="0039"/>
  <outline>
    <contour>
      <point x="1081.325740154569" y="1600.0" type="line" identifier="uiw6aBUf4P"/>
      <point x="58.49661373084797" y="1600.0" type="line" identifier="jtYkxiUX6G"/>
      <point x="58.49661373084797" y="709.4404945486027" type="line" identifier="2G5L37c87I"/>
      <point x="677.4666919171424" y="709.4404945486027" type="line"/>
      <point x="677.4666919171424" y="276.594432270108" type="line"/>
      <point x="460.31780429077725" y="276.594432270108" type="line"/>
      <point x="460.31780429077725" y="442.04833662491313" type="line"/>
      <point x="59.54709664619575" y="442.04833662491313" type="line" identifier="Wuidbv6mUe"/>
      <point x="59.54709664619575" y="0.0" type="line" identifier="oGvEEuxnYv"/>
      <point x="1081.325740154569" y="0.0" type="line" identifier="xR3pEHbMJx"/>
    </contour>
    <contour>
      <point x="462.32084336588844" y="930.2902993083173" type="line"/>
      <point x="462.32084336588844" y="1323.0147264381499" type="line"/>
      <point x="677.4666919171424" y="1323.0147264381499" type="line"/>
      <point x="677.4666919171424" y="930.2902993083173" type="line"/>
    </contour>
  </outline>
</glyph>
<glyph name="A" format="2">
  <advance width="1112.559613667722"/>
  <unicode hex="0041"/>
  <outline>
    <contour>
      <point x="38.456826195564936" y="0.0" type="line" smooth="yes" identifier="jFq8ta4UUc"/>
      <point x="442.2810558306054" y="0.0" type="line" smooth="yes" identifier="dQz4RxYhG4"/>
      <point x="442.2810558306054" y="566.2859886913941" type="line" smooth="yes" identifier="viYRWe5UN7"/>
      <point x="657.5314413512613" y="566.2859886913941" type="line" smooth="yes" identifier="QVexAlbAcl"/>
      <point x="657.5314413512613" y="0.0" type="line" smooth="yes" identifier="ZgsCdxNJRW"/>
      <point x="1061.3904895886878" y="0.0" type="line" smooth="yes" identifier="kpn4Kw9J0C"/>
      <point x="1061.3904895886878" y="1600.0" type="line" smooth="yes" identifier="OBZ5Ayed7M"/>
      <point x="161.54411167924684" y="1600.0" type="line" smooth="yes" identifier="iDT0uyhKrn"/>
      <point x="38.456826195564936" y="1108.7252116981847" type="line" smooth="yes" identifier="dqVr87m3uJ"/>
    </contour>
    <contour>
      <point x="442.2810558306054" y="842.4895796697599" type="line" smooth="yes" identifier="IIRC9Wy7kQ"/>
      <point x="442.2810558306054" y="1103.1184247310373" type="line" smooth="yes" identifier="VufvPdJ075"/>
      <point x="496.1958444931418" y="1322.4284645005366" type="line" smooth="yes" identifier="FsYtJ2vFnp"/>
      <point x="657.5314413512613" y="1322.4284645005366" type="line" smooth="yes" identifier="tUsW8L7b0y"/>
      <point x="657.5314413512613" y="842.4895796697599" type="line" smooth="yes" identifier="eTe9B4y76W"/>
    </contour>
  </outline>
</glyph>
<glyph name="B" format="2">
  <advance width="1214"/>
  <unicode hex="0042"/>
  <outline>
    <contour>
      <point x="101" y="0" type="line" identifier="hvY9r8RmLr"/>
      <point x="1124" y="0" type="line" identifier="9QFpw7nfq7"/>
      <point x="1124" y="665" type="line" identifier="543PerILpr"/>
      <point x="1031" y="799" type="line" identifier="zhomauHW30"/>
      <point x="1031" y="801" type="line" identifier="870ZhtaozS"/>
      <point x="1119" y="939" type="line" identifier="eGKH52Jgnk"/>
      <point x="1119" y="1600" type="line" identifier="FaP204GrdB"/>
      <point x="101" y="1600" type="line" identifier="JEev70GAj6"/>
    </contour>
    <contour>
      <point x="505" y="921" type="line" identifier="By7dfMihfe"/>
      <point x="505" y="1324" type="line" identifier="1p5hKrurVy"/>
      <point x="715" y="1324" type="line" identifier="Qby8aMtF2X"/>
      <point x="715" y="980" type="line" identifier="9lW01gQyU2"/>
      <point x="674" y="921" type="line" identifier="xpxyvIzPoc"/>
    </contour>
    <contour>
      <point x="505" y="275" type="line" identifier="jaMSiLrCua"/>
      <point x="505" y="679" type="line" identifier="XSrxNd2axx"/>
      <point x="671" y="679" type="line" identifier="VyYlzRh5nq"/>
      <point x="721" y="625" type="line" identifier="lsRGatjQja"/>
      <point x="721" y="275" type="line" identifier="xhlDJ3CjD5"/>
    </contour>
  </outline>
</glyph>
<glyph name="C" format="2">
  <advance width="1087.5739703667634"/>
  <unicode hex="0043"/>
  <outline>
    <contour>
      <point x="38.456826195564936" y="0.0" type="line" identifier="7lPhzTnk2Z"/>
      <point x="1054.9722876029184" y="0.0" type="line" identifier="qJVLZGnkwh"/>
      <point x="1054.9722876029184" y="558.2495288080872" type="line" identifier="nDnDHzAMXL"/>
      <point x="651.1285159032906" y="558.2495288080872" type="line" identifier="QX1V08aTu0"/>
      <point x="651.1285159032906" y="277.7669561453345" type="line" identifier="Y750RHTvDj"/>
      <point x="442.3023834645457" y="277.7669561453345" type="line" identifier="L2LsGnXiZ2"/>
      <point x="442.3023834645457" y="1071.785334884434" type="line" identifier="sUWsr03vF4"/>
      <point x="495.7321736150565" y="1322.2330438546655" type="line" identifier="dbOUe6OhxL"/>
      <point x="652.8169881593307" y="1322.2330438546655" type="line" identifier="5BjRbcud80"/>
      <point x="652.8169881593307" y="887.9146263380495" type="line" identifier="fNVDqwQo2o"/>
      <point x="1056.660759858958" y="887.9146263380495" type="line" identifier="wLqQQx7QVN"/>
      <point x="1056.660759858958" y="1600.0" type="line" identifier="9eJelv8BOw"/>
      <point x="147.4217911605299" y="1600.0" type="line" identifier="lfZev3ICaC"/>
      <point x="38.456826195564936" y="1101.8813137461786" type="line" identifier="V1EWIdPahq"/>
    </contour>
  </outline>
</glyph>
<glyph name="D" format="2">
  <advance width="1130.351270189108"/>
  <unicode hex="0044"/>
  <outline>
    <contour>
      <point x="65.5307469631794" y="0.0" type="line" identifier="gh4oopoKIn"/>
      <point x="1092.2763574385197" y="0.0" type="line" identifier="wIy2omw5Da"/>
      <point x="1092.2763574385197" y="1137.0313196078962" type="line" identifier="ydeACnPZN4"/>
      <point x="920.1062774486198" y="1600.0" type="line" identifier="IF8msvcgce"/>
      <point x="65.5307469631794" y="1600.0" type="line" identifier="hTYdJwlqIh"/>
    </contour>
    <contour>
      <point x="469.3549765982199" y="1322.4284645005366" type="line" identifier="YShvMHvurg"/>
      <point x="630.0455230004779" y="1322.4284645005366" type="line" identifier="DiLdvAK6bW"/>
      <point x="688.4521278034792" y="1137.607679751824" type="line" identifier="5OFemp6E2Y"/>
      <point x="688.4521278034792" y="277.57153549946344" type="line" identifier="4w8cXO1HlF"/>
      <point x="469.3549765982199" y="277.57153549946344" type="line" identifier="OGdfzPVlic"/>
    </contour>
  </outline>
</glyph>
<glyph name="E" format="2">
  <advance width="1026.297062828594"/>
  <unicode hex="0045"/>
  <outline>
    <contour>
      <point x="51.16912407903399" y="0.0" type="line" identifier="fZynkQ4XHB"/>
      <point x="995.9313096880666" y="0.0" type="line" identifier="FAQNpgUPxV"/>
      <point x="995.9313096880666" y="551.5269143016891" type="line" identifier="gHI0YjrPxR"/>
      <point x="644.420790159529" y="551.5269143016891" type="line" identifier="gxCIuXb4el"/>
      <point x="644.420790159529" y="265.5300706111517" type="line" identifier="5cgTYOhATF"/>
      <point x="454.9933537140745" y="265.5300706111517" type="line" identifier="bWs42DaCgU"/>
      <point x="454.9933537140745" y="675.1175229283338" type="line" identifier="VtD2aADJmn"/>
      <point x="958.6905464022581" y="675.1175229283338" type="line" identifier="PpbsFdHAnS"/>
      <point x="958.6905464022581" y="925.4545265986708" type="line" identifier="8WuC5p8Ax5"/>
      <point x="454.9933537140745" y="925.4545265986708" type="line" identifier="m39IWn9ntA"/>
      <point x="454.9933537140745" y="1340.7624741858974" type="line" identifier="gQ21I4SHQg"/>
      <point x="643.420790159529" y="1340.7624741858974" type="line" identifier="eqNb2VTwYs"/>
      <point x="642.9736042348655" y="1050.3849615381146" type="line" identifier="mLmcFoJA4m"/>
      <point x="994.484123763403" y="1050.3849615381146" type="line" identifier="e79n7CoPy1"/>
      <point x="994.9313096880666" y="1600.0" type="line" identifier="qYRmo14Il5"/>
      <point x="51.16912407903399" y="1600.0" type="line" identifier="HmJIcnLWfC"/>
    </contour>
  </outline>
</glyph>
<glyph name="G" format="2">
  <advance width="1113.3868733598463"/>
  <unicode hex="0047"/>
  <outline>
    <contour>
      <point x="38.07491275058843" y="0.0" type="line" identifier="7lPhzTnk2Z"/>
      <point x="1059.959184409635" y="0.0" type="line" identifier="qJVLZGnkwh"/>
      <point x="1059.959184409635" y="883.8199280361441" type="line" identifier="uek1NNj7De"/>
      <point x="552.8123438754069" y="883.8199280361441" type="line" identifier="qcvimxjndX"/>
      <point x="552.8123438754069" y="628.6666937207477" type="line" identifier="EARaY3Su65"/>
      <point x="659.6776235695155" y="628.6666937207477" type="line" identifier="4m6dHLVhZq"/>
      <point x="659.6776235695155" y="276.594432270108" type="line" identifier="Y750RHTvDj"/>
      <point x="441.89914238562886" y="276.594432270108" type="line" identifier="L2LsGnXiZ2"/>
      <point x="441.89914238562886" y="1114.3423423423421" type="line" identifier="sUWsr03vF4"/>
      <point x="483.35441748054365" y="1323.2101470840212" type="line" identifier="dbOUe6OhxL"/>
      <point x="656.0097845593343" y="1323.2101470840212" type="line" identifier="5BjRbcud80"/>
      <point x="656.0097845593343" y="1059.000946892839" type="line" identifier="fNVDqwQo2o"/>
      <point x="1059.868832796761" y="1059.000946892839" type="line" identifier="wLqQQx7QVN"/>
      <point x="1059.8535562589618" y="1600.0" type="line" identifier="9eJelv8BOw"/>
      <point x="120.20872223574926" y="1600.0" type="line" identifier="lfZev3ICaC"/>
      <point x="38.07491275058843" y="1129.757838920001" type="line" identifier="V1EWIdPahq"/>
    </contour>
  </outline>
</glyph>
<glyph name="H" format="2">
  <advance width="1123.8297125954782"/>
  <unicode hex="0048"/>
  <outline>
    <contour>
      <point x="50.78721063405748" y="0.0" type="line" identifier="uqAJBjDIOT"/>
      <point x="454.61144026909795" y="0.0" type="line" identifier="WUaPOcaxKT"/>
      <point x="454.61144026909795" y="661.7223259295332" type="line" identifier="QjywsYY2yB"/>
      <point x="669.757288820352" y="661.7223259295332" type="line" identifier="7JgTtdb0jg"/>
      <point x="669.757288820352" y="0.0" type="line" identifier="njzlIRBsoY"/>
      <point x="1073.0425019614208" y="0.0" type="line" identifier="oOtn61SmRY"/>
      <point x="1073.0425019614208" y="1600.0" type="line" identifier="8OglXgblhr"/>
      <point x="669.757288820352" y="1600.0" type="line" identifier="db0bPhBdaU"/>
      <point x="669.757288820352" y="938.2776740704668" type="line" identifier="MTAeavIVWY"/>
      <point x="454.61144026909795" y="938.2776740704668" type="line" identifier="lggLiivmLt"/>
      <point x="454.61144026909795" y="1600.0" type="line" identifier="UPaHY3UudR"/>
      <point x="50.78721063405748" y="1600.0" type="line" identifier="ZnCDQVdtyD"/>
    </contour>
  </outline>
</glyph>
<glyph name="J" format="2">
  <advance width="1094.4487640793948"/>
  <unicode hex="004A"/>
  <outline>
    <contour>
      <point x="80.96876155434714" y="0.0" type="line" identifier="jiO9eX9U07"/>
      <point x="1043.6615534453374" y="0.0" type="line" identifier="wgpFs1yguc"/>
      <point x="1043.6615534453374" y="1600.0" type="line" identifier="d5Di3vNzni"/>
      <point x="37.177763348934526" y="1600.0" type="line" identifier="TbrXnCyMEi"/>
      <point x="37.177763348934526" y="1321.2559406253101" type="line" identifier="AdYfGKx8QJ"/>
      <point x="639.8025052079107" y="1321.2559406253101" type="line" identifier="46RrD1WET2"/>
      <point x="639.8025052079107" y="278.74405937469004" type="line" identifier="zFXsE8BUYG"/>
      <point x="467.6688129571013" y="278.74405937469004" type="line" identifier="NQmE31PUns"/>
      <point x="433.25734743752764" y="621.1189928667405" type="line" identifier="qiXxY6YhCq"/>
      <point x="29.98383969555141" y="621.1189928667405" type="line" identifier="7exNZv1XSc"/>
    </contour>
  </outline>
</glyph>
<glyph name="L" format="2">
  <advance width="1069.2848975101226"/>
  <unicode hex="004C"/>
  <outline>
    <contour>
      <point x="51.16912407903399" y="0.0" type="line" identifier="XkJNfQlnnt"/>
      <point x="1038.8996023050079" y="0.0" type="line" identifier="82EXZEgt46"/>
      <point x="1038.8996023050079" y="531.6276997718439" type="line" identifier="VYRt9kHZtP"/>
      <point x="650.5657819982144" y="531.6276997718439" type="line" identifier="t7Q9RRLHt8"/>
      <point x="650.6048661273886" y="278.74405937469004" type="line" identifier="cqpSxwFiM3"/>
      <point x="455.0128957786616" y="278.74405937469004" type="line" identifier="MbxRZRd8vz"/>
      <point x="455.0128957786616" y="1600.0" type="line" identifier="lYiaKSKITt"/>
      <point x="51.16912407903399" y="1600.0" type="line" identifier="XFf4mMUzYo"/>
    </contour>
  </outline>
</glyph>
<glyph name="M" format="2">
  <advance width="1734.5960915870828"/>
  <unicode hex="004D"/>
  <outline>
    <contour>
      <point x="596.088088088088" y="241.16116116116117" type="line" identifier="0Dn4Xpf57M"/>
      <point x="483.0788897005113" y="1319.6925754583413" type="line"/>
      <point x="454.63098233368504" y="1319.6925754583413" type="line"/>
      <point x="454.63098233368504" y="0.0" type="line"/>
      <point x="50.78721063405748" y="0.0" type="line"/>
      <point x="50.78721063405748" y="1600.0" type="line"/>
      <point x="758.1051592132673" y="1600.0" type="line"/>
      <point x="858.8776975173372" y="498.58660462264066" type="line"/>
      <point x="875.7031175319464" y="498.58660462264066" type="line" identifier="9aKZPM0HPh"/>
      <point x="976.4738702666632" y="1600.0" type="line"/>
      <point x="1683.808880953025" y="1600.0" type="line"/>
      <point x="1683.808880953025" y="0.0" type="line"/>
      <point x="1279.9498327155982" y="0.0" type="line"/>
      <point x="1279.9498327155982" y="1319.6925754583413" type="line"/>
      <point x="1251.5349583818052" y="1319.6925754583413" type="line"/>
      <point x="1138.4927269611956" y="241.16116116116117" type="line" identifier="spdoeeCFft"/>
    </contour>
  </outline>
</glyph>
<glyph name="N" format="2">
  <advance width="1354.947451956461"/>
  <unicode hex="004E"/>
  <outline>
    <contour>
      <point x="50.78721063405748" y="0.0" type="line" identifier="CkwYPPvJLv"/>
      <point x="454.61144026909795" y="0.0" type="line" identifier="oHTJsN7drZ"/>
      <point x="454.61144026909795" y="1224.007521034548" type="line" identifier="wfBbYd10Pm"/>
      <point x="414.8823147471797" y="1224.007521034548" type="line" identifier="MEnBDHq6zU"/>
      <point x="898.9944539133728" y="124.88637285934583" type="line" identifier="3Nbopwznvn"/>
      <point x="898.9944539133728" y="0.0" type="line"/>
      <point x="1304.1602413224034" y="0.0" type="line" identifier="uKfuudIUvA"/>
      <point x="1304.1602413224034" y="1600.0" type="line" identifier="XRdLFXiM4t"/>
      <point x="900.3360116873631" y="1600.0" type="line" identifier="MUSJPjCIXg"/>
      <point x="900.7831976120264" y="649.0761572383194" type="line" identifier="VILP20cFmq"/>
      <point x="1018.1558856153451" y="649.0761572383194" type="line" identifier="z5b04GDwRN"/>
      <point x="624.2088845602358" y="1600.4471859246635" type="line" identifier="LL64NQ6WBE"/>
      <point x="50.78721063405748" y="1600.0" type="line" identifier="dzUaaP1sjt"/>
    </contour>
  </outline>
</glyph>
<glyph name="O" format="2">
  <advance width="1193"/>
  <unicode hex="004F"/>
  <outline>
    <contour>
      <point x="1110" y="374" type="line" identifier="ob8US3C311"/>
      <point x="1110" y="1600" type="line" identifier="c9brEFyXXA"/>
      <point x="193" y="1600" type="line" identifier="a4Ql951bxG"/>
      <point x="82" y="1228" type="line" identifier="kbL68Qh2zr"/>
      <point x="82" y="0" type="line" identifier="U6WibAQAUl"/>
      <point x="999" y="0" type="line" identifier="dfgNHTgBfR"/>
    </contour>
    <contour>
      <point x="706" y="392" type="line" identifier="SnrsQD5TLy"/>
      <point x="664" y="267" type="line" identifier="jjd5iRDXWT"/>
      <point x="486" y="267" type="line" identifier="YbQKHpAtYn"/>
      <point x="486" y="1211" type="line" identifier="vdfGLkskOQ"/>
      <point x="528" y="1339" type="line" identifier="qXlVxK5ShE"/>
      <point x="706" y="1339" type="line" identifier="g70r2r6DwY"/>
    </contour>
  </outline>
</glyph>
<glyph name="Q" format="2">
  <advance width="1148.098594089585"/>
  <unicode hex="0051"/>
  <outline>
    <contour>
      <point x="1097.3113834555274" y="1600.0390841291742" type="line" identifier="c9brEFyXXA"/>
      <point x="169.8340502664827" y="1600.0390841291742" type="line" identifier="a4Ql951bxG"/>
      <point x="72.22839957074191" y="1131.261459657856" type="line" identifier="kbL68Qh2zr"/>
      <point x="72.22839957074191" y="0.03908412917421926" type="line" identifier="U6WibAQAUl"/>
      <point x="1097.3113834555274" y="0.03908412917421926" type="line" identifier="dfgNHTgBfR"/>
    </contour>
    <contour>
      <point x="693.487153820487" y="277.61061962863766" type="line" identifier="jjd5iRDXWT"/>
      <point x="476.05262920578235" y="277.61061962863766" type="line" identifier="YbQKHpAtYn"/>
      <point x="476.05262920578235" y="1123.5517499481464" type="line" identifier="vdfGLkskOQ"/>
      <point x="508.63264165065965" y="1322.4675486297108" type="line" identifier="qXlVxK5ShE"/>
      <point x="693.487153820487" y="1322.4675486297108" type="line" identifier="g70r2r6DwY"/>
    </contour>
    <contour>
      <point x="444.66415063712367" y="-241.7284130977825" type="line"/>
      <point x="732.0687624561498" y="-241.7284130977825" type="line"/>
      <point x="732.0687624561498" y="1.1056281506731958" type="line"/>
      <point x="444.66415063712367" y="1.1056281506731958" type="line"/>
    </contour>
  </outline>
</glyph>
<glyph name="R" format="2">
  <advance width="1113.2642281921562"/>
  <unicode hex="0052"/>
  <outline>
    <contour>
      <point x="455.0324378432487" y="877.2033925817709" type="line"/>
      <point x="454.9933537140745" y="1322.4284645005366" type="line"/>
      <point x="666.9771212654094" y="1322.4284645005366" type="line"/>
      <point x="666.9966633299966" y="926.3692611530449" type="line"/>
      <point x="621.3200768335904" y="877.2033925817709" type="line"/>
    </contour>
    <contour>
      <point x="1074.787859932004" y="0.0" type="line"/>
      <point x="1074.8074019965911" y="605.3584755927099" type="line"/>
      <point x="981.4452560668777" y="738.8051114177241" type="line"/>
      <point x="981.4452560668777" y="740.8051114177241" type="line"/>
      <point x="1070.8404350296241" y="878.8358087817547" type="line"/>
      <point x="1070.820892965037" y="1600.0" type="line"/>
      <point x="51.16912407903399" y="1600.0" type="line"/>
      <point x="51.16912407903399" y="0.0" type="line"/>
      <point x="455.0128957786616" y="0.0" type="line"/>
      <point x="455.0128957786616" y="601.6642317993669" type="line"/>
      <point x="621.3396188981775" y="601.6642317993669" type="line"/>
      <point x="670.9440882323764" y="556.5179864549234" type="line"/>
      <point x="670.9440882323764" y="0.0" type="line"/>
    </contour>
  </outline>
</glyph>
<glyph name="S" format="2">
  <advance width="1111"/>
  <unicode hex="0053"/>
  <outline>
    <contour>
      <point x="76" y="0" type="line" identifier="09VlJ0BjUX"/>
      <point x="1035" y="0" type="line" identifier="EagWihqFM8"/>
      <point x="1035" y="921" type="line" identifier="KfNuQA7eZe"/>
      <point x="430" y="921" type="line" identifier="At364YZFEy"/>
      <point x="430" y="1145" type="line"/>
      <point x="469" y="1325" type="line"/>
      <point x="631" y="1325" type="line" identifier="3ZUkG35meB"/>
      <point x="631" y="1090" type="line" identifier="DTOJhFIl15"/>
      <point x="1035" y="1090" type="line" identifier="9KDcrfQ5Ui"/>
      <point x="1035" y="1600" type="line" identifier="SaF9ojRFrW"/>
      <point x="185" y="1600" type="line"/>
      <point x="74" y="1171" type="line"/>
      <point x="74" y="679" type="line" identifier="3sQ8t8BZ6b"/>
      <point x="631" y="679" type="line" identifier="yiV6OCBLHg"/>
      <point x="631" y="275" type="line" identifier="9kdl9SYsn8"/>
      <point x="468" y="275" type="line" identifier="yZDWuX8LLe"/>
      <point x="468" y="517" type="line" identifier="jYb9001DTm"/>
      <point x="76" y="517" type="line" identifier="ho4DrS0rdW"/>
    </contour>
  </outline>
</glyph>
<glyph name="U" format="2">
  <advance width="1101"/>
  <unicode hex="0055"/>
  <outline>
    <contour>
      <point x="649" y="1600" type="line" smooth="yes"/>
      <point x="649" y="276" type="line"/>
      <point x="501" y="276" type="line" smooth="yes"/>
      <point x="439" y="449" type="line" smooth="yes"/>
      <point x="439" y="1600" type="line"/>
      <point x="35" y="1600" type="line" smooth="yes"/>
      <point x="35" y="431" type="line" smooth="yes"/>
      <point x="199" y="0" type="line" smooth="yes"/>
      <point x="1053" y="0" type="line" smooth="yes"/>
      <point x="1053" y="1600" type="line" smooth="yes"/>
    </contour>
  </outline>
</glyph>
<glyph name="V" format="2">
  <advance width="1111.640766893019"/>
  <unicode hex="0056"/>
  <outline>
    <contour>
      <point x="454.61144026909795" y="1600.0" type="line" smooth="yes"/>
      <point x="454.61144026909795" y="277.57153549946344" type="line"/>
      <point x="621.2691700709718" y="277.57153549946344" type="line" smooth="yes"/>
      <point x="669.7068059050041" y="480.80589598607617" type="line" smooth="yes"/>
      <point x="669.7068059050041" y="1600.0" type="line"/>
      <point x="1073.5658541424307" y="1600.0" type="line" smooth="yes"/>
      <point x="1073.5658541424307" y="471.47084020957897" type="line" smooth="yes"/>
      <point x="959.6092488885283" y="0.0" type="line" smooth="yes"/>
      <point x="50.78721063405748" y="0.0" type="line" smooth="yes"/>
      <point x="50.78721063405748" y="1600.0" type="line" smooth="yes"/>
    </contour>
  </outline>
</glyph>
<glyph name="W" format="2">
  <advance width="1603.0636672708745"/>
  <unicode hex="0057"/>
  <outline>
    <contour>
      <point x="455.475358241124" y="1600.0" type="line" smooth="yes" identifier="12Pyby1xY2"/>
      <point x="51.16912407903399" y="1600.0" type="line" smooth="yes" identifier="5LJg4ajoG6"/>
      <point x="51.16912407903399" y="0.0" type="line" smooth="yes" identifier="ZqTZqAY3uY"/>
      <point x="739.8181424667912" y="0.0" type="line" smooth="yes" identifier="rCeQLyjlsN"/>
      <point x="795.6697959220483" y="283.25157590022457" type="line"/>
      <point x="805.0937333730128" y="283.25157590022457" type="line"/>
      <point x="810.551623695768" y="0.0" type="line" smooth="yes" identifier="Pkl7cZ37MU"/>
      <point x="1433.2825798771742" y="0.0" type="line" smooth="yes" identifier="R4lklfJsHA"/>
      <point x="1564.6068410753094" y="462.5271217163109" type="line" smooth="yes" identifier="7g7f8Wu7K4"/>
      <point x="1564.6068410753094" y="1600.0" type="line" smooth="yes" identifier="RTOJW56qXy"/>
      <point x="1160.3158834510182" y="1600.0" type="line" identifier="JfSFAkWGZC"/>
      <point x="1160.3158834510182" y="464.9350972594216" type="line" smooth="yes" identifier="WWvGwSpq0g"/>
      <point x="1106.3262000739478" y="277.57153549946344" type="line" smooth="yes" identifier="oee4nqI8Wl"/>
      <point x="1014.4629133638143" y="277.57153549946344" type="line" identifier="Ljn2lpvpG8"/>
      <point x="995.4977860743627" y="460.36090144198255" type="line"/>
      <point x="996.0698356013672" y="1421.5305395485577" type="line" smooth="yes"/>
      <point x="620.8850472093717" y="1421.5305395485577" type="line"/>
      <point x="620.2739135531929" y="458.7149491834177" type="line"/>
      <point x="619.7541325108892" y="442.29802775748726" type="line"/>
      <point x="580.3351730108486" y="277.57153549946344" type="line" identifier="GlWB6PG54Z"/>
      <point x="455.475358241124" y="277.57153549946344" type="line" identifier="iqeTRv7HXg"/>
    </contour>
  </outline>
</glyph>
<glyph name="X" format="2">
  <advance width="1113.0185771356944"/>
  <unicode hex="0058"/>
  <outline>
    <contour>
      <point x="607.7299641984328" y="661.0969798627457" type="line"/>
      <point x="670.7179792405019" y="608.107071034999" type="line"/>
      <point x="670.7179792405019" y="0.0" type="line"/>
      <point x="1074.5617509401295" y="0.0" type="line"/>
      <point x="1074.5617509401295" y="657.5729062395728" type="line"/>
      <point x="967.3371479587696" y="799.0" type="line"/>
      <point x="967.3371479587696" y="801.0" type="line"/>
      <point x="1070.5947839731625" y="939.0306973640307" type="line"/>
      <point x="1070.5947839731625" y="1600.0" type="line"/>
      <point x="667.3230618005392" y="1600.0" type="line"/>
      <point x="667.3230618005392" y="988.4965325686046" type="line"/>
      <point x="607.7299641984328" y="938.9030201372543" type="line"/>
      <point x="505.30388947506066" y="938.9030201372543" type="line"/>
      <point x="445.69551533515505" y="988.4965325686046" type="line"/>
      <point x="445.69551533515505" y="1600.0" type="line"/>
      <point x="42.4237931625319" y="1600.0" type="line"/>
      <point x="42.4237931625319" y="939.0306973640307" type="line"/>
      <point x="145.71803334866397" y="801.0" type="line"/>
      <point x="145.71803334866397" y="799.0" type="line"/>
      <point x="38.456826195564936" y="657.5729062395728" type="line"/>
      <point x="38.456826195564936" y="0.0" type="line"/>
      <point x="442.3005978951925" y="0.0" type="line"/>
      <point x="442.3005978951925" y="608.107071034999" type="line"/>
      <point x="505.30388947506066" y="661.0969798627457" type="line"/>
    </contour>
  </outline>
</glyph>
<glyph name="Y" format="2">
  <advance width="1081.9903687471256"/>
  <unicode hex="0059"/>
  <outline>
    <contour>
      <point x="340.11792873955034" y="0.0035711387062738395" type="line" identifier="XKjckKJ7m9"/>
      <point x="743.3896509121735" y="0.0" type="line" identifier="WihjL321cU"/>
      <point x="743.3896509121735" y="626.0236903570236" type="line" identifier="rvzWMWl6O1"/>
      <point x="1051.6246156065977" y="747.2497632767904" type="line" identifier="YbKEFhFR3q"/>
      <point x="1051.6246156065977" y="1599.9428617806998" type="line" identifier="wnC8PudY2b"/>
      <point x="647.7808439069702" y="1599.9428617806998" type="line" identifier="spI4xe8t4f"/>
      <point x="647.7808439069702" y="968.2660949237526" type="line" identifier="Jw55i2s2Mm"/>
      <point x="545.0113086059033" y="929.491644797951" type="line" identifier="9ncbEH2hEb"/>
      <point x="538.4962710458208" y="929.491644797951" type="line" identifier="u7HFbTQwMo"/>
      <point x="433.637475313151" y="968.2660949237526" type="line" identifier="oy8ifCCtGL"/>
      <point x="433.637475313151" y="1599.9428617806998" type="line" identifier="ah5yat5gKV"/>
      <point x="30.365753140527918" y="1599.9428617806998" type="line" identifier="fJXhpKV79E"/>
      <point x="30.365753140527918" y="747.2497632767904" type="line" identifier="k3vH9oxqcN"/>
      <point x="340.11792873955034" y="626.0236903570236" type="line" identifier="3Kveia3O9h"/>
    </contour>
  </outline>
</glyph>
<glyph name="Z" format="2">
  <advance width="1090.2337562788014"/>
  <unicode hex="005A"/>
  <outline>
    <contour>
      <point x="29.98383969555141" y="0.0" type="line"/>
      <point x="1052.8132727321918" y="0.0" type="line" identifier="pzdvPTirLJ"/>
      <point x="1052.8132727321918" y="481.92356320284244" type="line" identifier="91SxUS0iwG"/>
      <point x="652.0248085923763" y="481.92356320284244" type="line"/>
      <point x="652.0248085923763" y="277.57153549946344" type="line"/>
      <point x="444.50164578993406" y="277.57153549946344" type="line"/>
      <point x="444.50164578993406" y="447.75312249186123" type="line"/>
      <point x="1058.0401392383374" y="1310.0426011597183" type="line" identifier="yyb1NCCI5w"/>
      <point x="1058.0401392383374" y="1600.0" type="line" identifier="5FogYRSgkk"/>
      <point x="33.43102562021481" y="1600.0" type="line" identifier="svlFvrau4c"/>
      <point x="33.43102562021481" y="1160.2847712577443" type="line" identifier="LQ9fBsTy9K"/>
      <point x="393.9880330781232" y="1160.2847712577443" type="line"/>
      <point x="393.9880330781232" y="1322.4284645005366" type="line"/>
      <point x="640.4660426191957" y="1322.4284645005366" type="line"/>
      <point x="640.4660426191957" y="1301.4701728755786" type="line"/>
      <point x="29.98383969555141" y="452.8673358042728" type="line" identifier="teVKnpBcVb"/>
    </contour>
  </outline>
</glyph>
<glyph name="B.narrow" format="2">
  <advance width="839"/>
  <outline>
    <contour>
      <point x="78" y="0" type="line" identifier="hvY9r8RmLr"/>
      <point x="770" y="0" type="line" identifier="9QFpw7nfq7"/>
      <point x="770" y="693" type="line" identifier="543PerILpr"/>
      <point x="692" y="783" type="line" identifier="870ZhtaozS"/>
      <point x="765" y="821" type="line" identifier="eGKH52Jgnk"/>
      <point x="765" y="1600" type="line" identifier="FaP204GrdB"/>
      <point x="78" y="1600" type="line" identifier="JEev70GAj6"/>
    </contour>
    <contour>
      <point x="318" y="874" type="line" identifier="By7dfMihfe"/>
      <point x="318" y="1364" type="line" identifier="1p5hKrurVy"/>
      <point x="525" y="1364" type="line" identifier="Qby8aMtF2X"/>
      <point x="525" y="924" type="line" identifier="9lW01gQyU2"/>
    </contour>
    <contour>
      <point x="318" y="236" type="line" identifier="jaMSiLrCua"/>
      <point x="318" y="668" type="line" identifier="XSrxNd2axx"/>
      <point x="464" y="693" type="line" identifier="VyYlzRh5nq"/>
      <point x="530" y="613" type="line" identifier="lsRGatjQja"/>
      <point x="530" y="236" type="line" identifier="xhlDJ3CjD5"/>
    </contour>
  </outline>
</glyph>
<glyph name="C.wide" format="2">
  <advance width="1208"/>
  <outline>
    <contour>
      <point x="108" y="0" type="line" identifier="7lPhzTnk2Z"/>
      <point x="1127" y="0" type="line" identifier="qJVLZGnkwh"/>
      <point x="1127" y="278" type="line" identifier="Y750RHTvDj"/>
      <point x="512" y="278" type="line" identifier="L2LsGnXiZ2"/>
      <point x="512" y="1072" type="line" identifier="sUWsr03vF4"/>
      <point x="566" y="1322" type="line" identifier="dbOUe6OhxL"/>
      <point x="1126" y="1322" type="line" identifier="5BjRbcud80"/>
      <point x="1126" y="1600" type="line" identifier="9eJelv8BOw"/>
      <point x="217" y="1600" type="line" identifier="lfZev3ICaC"/>
      <point x="108" y="1102" type="line" identifier="V1EWIdPahq"/>
    </contour>
  </outline>
</glyph>
<glyph name="E.wide" format="2">
  <advance width="929.912425939453"/>
  <outline>
    <contour>
      <point x="50.78721063405748" y="0.0" type="line" identifier="fZynkQ4XHB"/>
      <point x="899.9285862439016" y="0.0" type="line" identifier="FAQNpgUPxV"/>
      <point x="899.9285862439016" y="265.5300706111517" type="line" identifier="5cgTYOhATF"/>
      <point x="454.61144026909795" y="265.5300706111517" type="line" identifier="bWs42DaCgU"/>
      <point x="454.61144026909795" y="675.1175229283338" type="line" identifier="VtD2aADJmn"/>
      <point x="861.1244577911245" y="675.1175229283338" type="line" identifier="PpbsFdHAnS"/>
      <point x="861.1244577911245" y="925.4545265986708" type="line" identifier="8WuC5p8Ax5"/>
      <point x="454.61144026909795" y="925.4545265986708" type="line" identifier="m39IWn9ntA"/>
      <point x="454.61144026909795" y="1340.7624741858974" type="line" identifier="gQ21I4SHQg"/>
      <point x="898.9285862439016" y="1340.7624741858974" type="line" identifier="eqNb2VTwYs"/>
      <point x="898.9285862439016" y="1600.0" type="line" identifier="qYRmo14Il5"/>
      <point x="50.78721063405748" y="1600.0" type="line" identifier="HmJIcnLWfC"/>
    </contour>
  </outline>
</glyph>
<glyph name="F.wide" format="2">
  <advance width="981.5495405315226"/>
  <outline>
    <contour>
      <point x="51.16912407903399" y="0.0" type="line" identifier="oAgH2tA6DJ"/>
      <point x="454.9933537140745" y="0.0" type="line" identifier="zCZyMcW5ho"/>
      <point x="454.9933537140745" y="509.2373725076428" type="line" identifier="yHYqkMd7LI"/>
      <point x="888.5935485034584" y="509.2373725076428" type="line" identifier="NmB7yyQuio"/>
      <point x="888.5935485034584" y="785.0110380650921" type="line" identifier="wQk2C8zPHh"/>
      <point x="454.9933537140745" y="785.0110380650921" type="line" identifier="4cFHKQfHDt"/>
      <point x="454.9933537140745" y="1322.3893803713624" type="line" identifier="ZvzwyrcwpS"/>
      <point x="951.1837873909946" y="1322.3893803713624" type="line" identifier="4E754ovOIe"/>
      <point x="951.1837873909946" y="1600.0" type="line" identifier="NUrIjqOB7J"/>
      <point x="51.16912407903399" y="1600.0" type="line" identifier="TBAYuCfUFX"/>
    </contour>
  </outline>
</glyph>
<glyph name="G.wide" format="2">
  <advance width="1107"/>
  <outline>
    <contour>
      <point x="35" y="0" type="line" identifier="7lPhzTnk2Z"/>
      <point x="1053" y="0" type="line" identifier="qJVLZGnkwh"/>
      <point x="1053" y="868" type="line" identifier="uek1NNj7De"/>
      <point x="552" y="868" type="line" identifier="qcvimxjndX"/>
      <point x="552" y="644" type="line" identifier="EARaY3Su65"/>
      <point x="653" y="644" type="line" identifier="4m6dHLVhZq"/>
      <point x="653" y="275" type="line" identifier="Y750RHTvDj"/>
      <point x="439" y="275" type="line" identifier="L2LsGnXiZ2"/>
      <point x="439" y="1116" type="line" identifier="sUWsr03vF4"/>
      <point x="481" y="1325" type="line" identifier="dbOUe6OhxL"/>
      <point x="1053" y="1325" type="line" identifier="5BjRbcud80"/>
      <point x="1053" y="1600" type="line" identifier="9eJelv8BOw"/>
      <point x="117" y="1600" type="line" identifier="lfZev3ICaC"/>
      <point x="35" y="1130" type="line" identifier="V1EWIdPahq"/>
    </contour>
  </outline>
</glyph>
<glyph name="I.narrow" format="2">
  <advance width="604"/>
  <outline>
    <contour>
      <point x="504" y="0" type="line" identifier="1m237t4hyw"/>
      <point x="504" y="1600" type="line" identifier="v7N4yg5XNk"/>
      <point x="99" y="1600" type="line" identifier="zfocDyDTCM"/>
      <point x="99" y="0" type="line" identifier="S4rO5KuHiL"/>
    </contour>
  </outline>
</glyph>
<glyph name="K.alt" format="2">
  <advance width="1145"/>
  <outline>
    <contour>
      <point x="464" y="0" type="line" identifier="wmNm7XZsaF"/>
      <point x="464" y="679" type="line" identifier="O22liaP9Qk"/>
      <point x="615" y="679" type="line" identifier="ELFBWIb1vd"/>
      <point x="676" y="626" type="line" identifier="DzXo67YEfw"/>
      <point x="676" y="0" type="line" identifier="aKpYWD78l2"/>
      <point x="1080" y="0" type="line" identifier="ChS7KlqGi6"/>
      <point x="1080" y="774" type="line" identifier="sWLgkU8Vey"/>
      <point x="970" y="873" type="line" identifier="Of0iQc0wBG"/>
      <point x="1071" y="1600" type="line" identifier="dMJ1ywOKQQ"/>
      <point x="672" y="1600" type="line" identifier="08OWjR2YBJ"/>
      <point x="615" y="955" type="line" identifier="g4YLdZEoM3"/>
      <point x="464" y="955" type="line" identifier="uZuki3Isec"/>
      <point x="464" y="1600" type="line" identifier="nRfcNgqJ4H"/>
      <point x="61" y="1600" type="line" identifier="3XJlWt89ad"/>
      <point x="61" y="0" type="line" identifier="wdbO8kCovY"/>
    </contour>
  </outline>
</glyph>
<glyph name="L.wide" format="2">
  <advance width="1068.60921281642"/>
  <outline>
    <contour>
      <point x="50.94401608816023" y="0.0" type="line" identifier="XkJNfQlnnt"/>
      <point x="1038.5012940868796" y="0.0" type="line" identifier="82EXZEgt46"/>
      <point x="1038.5012940868796" y="278.74405937469004" type="line" identifier="cqpSxwFiM3"/>
      <point x="454.78778778778775" y="278.74405937469004" type="line" identifier="MbxRZRd8vz"/>
      <point x="454.78778778778775" y="1600.0" type="line" identifier="lYiaKSKITt"/>
      <point x="50.94401608816023" y="1600.0" type="line" identifier="XFf4mMUzYo"/>
    </contour>
  </outline>
</glyph>
<glyph name="N.wide" format="2">
  <advance width="1540"/>
  <outline>
    <contour>
      <point x="143" y="0" type="line" identifier="CkwYPPvJLv"/>
      <point x="547" y="0" type="line" identifier="oHTJsN7drZ"/>
      <point x="547" y="1224" type="line" identifier="wfBbYd10Pm"/>
      <point x="559" y="1224" type="line" identifier="MEnBDHq6zU"/>
      <point x="992" y="0" type="line" identifier="3Nbopwznvn"/>
      <point x="1396" y="0" type="line" identifier="uKfuudIUvA"/>
      <point x="1396" y="1600" type="line" identifier="XRdLFXiM4t"/>
      <point x="993" y="1600" type="line" identifier="MUSJPjCIXg"/>
      <point x="993" y="401" type="line" identifier="VILP20cFmq"/>
      <point x="986" y="401" type="line" identifier="z5b04GDwRN"/>
      <point x="569" y="1600" type="line" identifier="LL64NQ6WBE"/>
      <point x="143" y="1600" type="line" identifier="dzUaaP1sjt"/>
    </contour>
  </outline>
</glyph>
<glyph name="R.alt" format="2">
  <advance width="1174"/>
  <outline>
    <contour>
      <point x="482" y="877" type="line"/>
      <point x="482" y="1322" type="line"/>
      <point x="694" y="1322" type="line"/>
      <point x="694" y="877" type="line"/>
    </contour>
    <contour>
      <point x="1106" y="0" type="line"/>
      <point x="998" y="675" type="line"/>
      <point x="1098" y="709" type="line"/>
      <point x="1097" y="1600" type="line"/>
      <point x="78" y="1600" type="line"/>
      <point x="78" y="0" type="line"/>
      <point x="482" y="0" type="line"/>
      <point x="482" y="602" type="line"/>
      <point x="655" y="601" type="line"/>
      <point x="738" y="0" type="line"/>
    </contour>
  </outline>
</glyph>
<glyph name="S.alt" format="2">
  <advance width="827"/>
  <outline>
    <contour>
      <point x="84" y="0" type="line" identifier="09VlJ0BjUX"/>
      <point x="737" y="0" type="line" identifier="EagWihqFM8"/>
      <point x="737" y="903" type="line" identifier="KfNuQA7eZe"/>
      <point x="294" y="903" type="line" identifier="At364YZFEy"/>
      <point x="294" y="1166" type="line"/>
      <point x="329" y="1363" type="line"/>
      <point x="498" y="1363" type="line" identifier="3ZUkG35meB"/>
      <point x="498" y="1181" type="line" identifier="DTOJhFIl15"/>
      <point x="737" y="1181" type="line" identifier="9KDcrfQ5Ui"/>
      <point x="737" y="1600" type="line" identifier="SaF9ojRFrW"/>
      <point x="168" y="1600" type="line"/>
      <point x="82" y="1182" type="line"/>
      <point x="82" y="697" type="line" identifier="3sQ8t8BZ6b"/>
      <point x="498" y="697" type="line" identifier="yiV6OCBLHg"/>
      <point x="498" y="237" type="line" identifier="9kdl9SYsn8"/>
      <point x="317" y="237" type="line" identifier="yZDWuX8LLe"/>
      <point x="317" y="399" type="line" identifier="jYb9001DTm"/>
      <point x="84" y="399" type="line" identifier="ho4DrS0rdW"/>
    </contour>
  </outline>
</glyph>
<glyph name="S.wide" format="2">
  <advance width="1034.7264832399967"/>
  <outline>
    <contour>
      <point x="40.456826195564936" y="0.0" type="line" identifier="09VlJ0BjUX"/>
      <point x="1004.3607300994689" y="0.0" type="line" identifier="EagWihqFM8"/>
      <point x="1004.3607300994689" y="919.3183183183183" type="line" identifier="KfNuQA7eZe"/>
      <point x="394.45170395620846" y="919.3183183183183" type="line" identifier="At364YZFEy"/>
      <point x="394.45170395620846" y="1140.1422774125479" type="line"/>
      <point x="433.28198468739015" y="1323.913661409157" type="line"/>
      <point x="1004.3607300994689" y="1323.913661409157" type="line" identifier="3ZUkG35meB"/>
      <point x="1004.3607300994689" y="1600.0" type="line" identifier="SaF9ojRFrW"/>
      <point x="149.5244704163623" y="1600.0" type="line"/>
      <point x="38.456826195564936" y="1166.3623713803895" type="line"/>
      <point x="38.456826195564936" y="680.6816816816817" type="line" identifier="3sQ8t8BZ6b"/>
      <point x="600.069772475178" y="680.6816816816817" type="line" identifier="yiV6OCBLHg"/>
      <point x="600.069772475178" y="276.0863385908431" type="line" identifier="9kdl9SYsn8"/>
      <point x="40.456826195564936" y="276.0863385908431" type="line" identifier="yZDWuX8LLe"/>
    </contour>
  </outline>
</glyph>
<glyph name="Y.alt" format="2">
  <advance width="1081"/>
  <outline>
    <contour>
      <point x="43" y="275" type="line"/>
      <point x="43" y="0" type="line"/>
      <point x="1033" y="0" type="line" identifier="oOtn61SmRY"/>
      <point x="1033" y="1600" type="line" identifier="8OglXgblhr"/>
      <point x="629" y="1600" type="line" identifier="db0bPhBdaU"/>
      <point x="629" y="940" type="line" identifier="MTAeavIVWY"/>
      <point x="431" y="940" type="line" identifier="lggLiivmLt"/>
      <point x="431" y="1600" type="line" identifier="UPaHY3UudR"/>
      <point x="27" y="1600" type="line" identifier="ZnCDQVdtyD"/>
      <point x="27" y="664" type="line" identifier="uqAJBjDIOT"/>
      <point x="629" y="664" type="line" identifier="7JgTtdb0jg"/>
      <point x="629" y="275" type="line"/>
    </contour>
  </outline>
</glyph>
<glyph name="Z.wide" format="2">
  <advance width="1087"/>
  <outline>
    <contour>
      <point x="30" y="0" type="line"/>
      <point x="1049" y="0" type="line" identifier="pzdvPTirLJ"/>
      <point x="1049" y="275" type="line"/>
      <point x="436" y="275" type="line"/>
      <point x="436" y="446" type="line"/>
      <point x="1054" y="1311" type="line" identifier="yyb1NCCI5w"/>
      <point x="1054" y="1600" type="line" identifier="5FogYRSgkk"/>
      <point x="34" y="1600" type="line" identifier="svlFvrau4c"/>
      <point x="34" y="1325" type="line"/>
      <point x="644" y="1325" type="line"/>
      <point x="644" y="1309" type="line"/>
      <point x="30" y="457" type="line" identifier="teVKnpBcVb"/>
    </contour>
  </outline>
</glyph>
<glyph name="five.wide" format="2">
  <advance width="1165"/>
  <outline>
    <contour>
      <point x="76" y="0" type="line" identifier="09VlJ0BjUX"/>
      <point x="1091" y="0" type="line" identifier="EagWihqFM8"/>
      <point x="1091" y="901" type="line" identifier="KfNuQA7eZe"/>
      <point x="478" y="944" type="line" identifier="At364YZFEy"/>
      <point x="478" y="1323" type="line" identifier="BcuLfvaQKC"/>
      <point x="1091" y="1323" type="line" identifier="3ZUkG35meB"/>
      <point x="1091" y="1600" type="line" identifier="SaF9ojRFrW"/>
      <point x="74" y="1600" type="line" identifier="F4sQEYelA8"/>
      <point x="74" y="716" type="line" identifier="3sQ8t8BZ6b"/>
      <point x="687" y="673" type="line" identifier="yiV6OCBLHg"/>
      <point x="687" y="277" type="line" identifier="9kdl9SYsn8"/>
      <point x="76" y="277" type="line" identifier="yZDWuX8LLe"/>
    </contour>
  </outline>
</glyph>
<glyph name="six.wide" format="2">
  <advance width="1258"/>
  <outline>
    <contour>
      <point x="117" y="0" type="line" identifier="uiw6aBUf4P"/>
      <point x="1136" y="0" type="line" identifier="jtYkxiUX6G"/>
      <point x="1136" y="880" type="line" identifier="2G5L37c87I"/>
      <point x="520" y="880" type="line"/>
      <point x="520" y="1198" type="line"/>
      <point x="553" y="1325" type="line"/>
      <point x="1135" y="1325" type="line"/>
      <point x="1135" y="1600" type="line" identifier="oGvEEuxnYv"/>
      <point x="174" y="1600" type="line" identifier="xR3pEHbMJx"/>
      <point x="117" y="1204" type="line" identifier="KnMArb0tv8"/>
    </contour>
    <contour>
      <point x="732" y="651" type="line"/>
      <point x="732" y="275" type="line"/>
      <point x="520" y="275" type="line"/>
      <point x="520" y="651" type="line"/>
    </contour>
  </outline>
</glyph>
<glyph name="three.wide" format="2">
  <advance width="792"/>
  <outline>
    <contour>
      <point x="56" y="0" type="line" identifier="O9abUc1nmN"/>
      <point x="719" y="0" type="line" identifier="kMJYMTfXCq"/>
      <point x="719" y="861" type="line" identifier="su2XmdS8e8"/>
      <point x="621" y="861" type="line" identifier="JQaOzDQqlF"/>
      <point x="621" y="861" type="line"/>
      <point x="697" y="942" type="line" identifier="S91TzLL02W"/>
      <point x="697" y="1600" type="line" identifier="xg8x2Ki40p"/>
      <point x="58" y="1600" type="line" identifier="pE1XSRiy68"/>
      <point x="58" y="1357" type="line" identifier="7ogBYufWpl"/>
      <point x="456" y="1357" type="line" identifier="RHLvSX2Jv6"/>
      <point x="456" y="944" type="line" identifier="YUjTrmoWd9"/>
      <point x="387" y="865" type="line"/>
      <point x="387" y="863" type="line" identifier="iic1IBkDqp"/>
      <point x="118" y="863" type="line" identifier="lRLJEhXMlO"/>
      <point x="118" y="717" type="line" identifier="8aKgEELrVU"/>
      <point x="479" y="717" type="line" identifier="Dm8zjmbhNr"/>
      <point x="479" y="238" type="line" identifier="xv9CFHiFgB"/>
      <point x="56" y="238" type="line" identifier="YajKQV3MHP"/>
    </contour>
  </outline>
</glyph>
